<?xml version="1.0" standalone="no"?>
<!DOCTYPE svg PUBLIC "-//W3C//DTD SVG 20010904//EN"
 "http://www.w3.org/TR/2001/REC-SVG-20010904/DTD/svg10.dtd">
<svg version="1.0" xmlns="http://www.w3.org/2000/svg"
 width="600.000000pt" height="600.000000pt" viewBox="0 0 600.000000 600.000000"
 preserveAspectRatio="xMidYMid meet">
<g transform="translate(0.000000,600.000000) scale(0.100000,-0.100000)"
fill="#000000" stroke="none">
<path d="M5590 5515 c0 -3 2 -5 5 -5 3 0 5 2 5 5 0 3 -2 5 -5 5 -3 0 -5 -2 -5
-5z"/>
<path d="M2894 5435 c-108 -23 -150 -50 -824 -523 -780 -548 -852 -607 -929
-763 -75 -152 -72 -79 -69 -1492 l3 -1262 22 -55 c55 -133 158 -232 280 -270
99 -31 926 -31 1025 0 130 40 248 157 288 287 20 64 20 90 20 1862 0 1193 4
1808 10 1833 32 114 232 198 374 156 38 -12 703 -449 916 -602 63 -46 107 -70
131 -73 96 -13 161 107 101 184 -30 38 -985 669 -1048 692 -113 43 -193 49
-300 26z m-414 -575 c20 -20 20 -33 20 -936 l0 -916 -29 -29 -29 -29 -547 0
-547 0 -29 29 -29 29 0 455 c0 666 -42 590 555 1014 631 447 593 425 635 383z
m-35 -2152 c56 -25 55 -17 55 -658 0 -640 1 -622 -55 -696 -48 -63 -85 -72
-318 -76 l-208 -3 -2 312 -2 313 118 0 c90 0 119 3 123 14 5 12 -98 359 -118
399 -8 15 -26 17 -158 17 l-149 0 -31 -102 c-17 -57 -46 -149 -65 -205 -41
-126 -43 -123 102 -123 l113 0 -2 -312 -3 -313 -200 4 c-218 4 -234 7 -284 54
-73 70 -71 43 -71 709 0 632 0 631 48 661 35 21 1061 26 1107 5z"/>
<path d="M1661 3761 c-108 -14 -140 -96 -65 -165 25 -23 40 -48 49 -82 l12
-49 228 0 229 0 12 49 c9 35 24 60 49 83 47 43 48 112 3 146 -30 22 -383 34
-517 18z"/>
<path d="M1477 3550 c-36 -29 -42 -65 -17 -107 13 -23 20 -52 20 -89 0 -67 22
-112 60 -126 24 -8 29 -16 32 -45 4 -47 33 -67 54 -38 9 12 12 30 8 47 l-6 28
256 0 256 0 -6 -27 c-3 -17 1 -36 10 -48 22 -29 50 -9 54 39 2 24 8 36 18 36
41 0 74 56 74 125 0 52 5 73 20 92 52 66 -7 152 -85 123 -31 -12 -55 -63 -55
-119 0 -53 7 -52 -305 -49 l-260 3 -5 55 c-7 66 -23 98 -56 110 -34 13 -38 13
-67 -10z"/>
<path d="M5510 4715 c0 -3 2 -5 5 -5 3 0 5 2 5 5 0 3 -2 5 -5 5 -3 0 -5 -2 -5
-5z"/>
<path d="M4507 4231 c-80 -26 -92 -35 -475 -343 -411 -331 -1077 -894 -1215
-1027 -53 -51 -69 -94 -68 -180 1 -100 -4 -94 424 -512 221 -216 548 -538 727
-714 335 -332 359 -352 454 -385 238 -82 496 21 599 237 l32 68 0 1300 0 1300
-27 57 c-81 174 -272 258 -451 199z m194 -234 c74 -49 69 51 69 -1322 0 -1387
6 -1274 -79 -1346 -71 -61 -175 -76 -272 -39 -44 16 -90 57 -308 272 -141 140
-438 431 -661 647 -487 474 -450 434 -450 476 0 44 1 45 290 292 417 355 560
476 695 584 409 330 533 428 560 442 45 24 115 22 156 -6z"/>
<path d="M4350 3081 c-143 -77 -170 -161 -170 -530 l0 -264 -91 6 c-147 11
-143 19 -100 -237 22 -130 33 -173 47 -183 13 -9 60 -13 174 -13 177 0 182 2
194 75 4 22 19 104 33 183 34 182 36 178 -107 174 l-100 -4 0 200 0 200 23 6
c113 28 206 229 170 366 -11 42 -26 46 -73 21z"/>
<path d="M3897 2823 c-12 -11 -7 -116 7 -156 31 -86 107 -144 203 -155 l46 -5
-8 59 c-10 82 -39 155 -77 191 -52 50 -150 88 -171 66z"/>
<path d="M4405 2640 c-78 -24 -145 -119 -145 -207 0 -32 2 -33 38 -33 81 1
163 64 197 153 32 85 2 114 -90 87z"/>
<path d="M5760 4075 c0 -3 2 -5 5 -5 3 0 5 2 5 5 0 3 -2 5 -5 5 -3 0 -5 -2 -5
-5z"/>
<path d="M5830 4075 c0 -3 2 -5 5 -5 3 0 5 2 5 5 0 3 -2 5 -5 5 -3 0 -5 -2 -5
-5z"/>
<path d="M5680 2635 c0 -3 2 -5 5 -5 3 0 5 2 5 5 0 3 -2 5 -5 5 -3 0 -5 -2 -5
-5z"/>
<path d="M5830 1595 c0 -3 2 -5 5 -5 3 0 5 2 5 5 0 3 -2 5 -5 5 -3 0 -5 -2 -5
-5z"/>
<path d="M5810 1525 c0 -3 2 -5 5 -5 3 0 5 2 5 5 0 3 -2 5 -5 5 -3 0 -5 -2 -5
-5z"/>
<path d="M5840 505 c0 -3 2 -5 5 -5 3 0 5 2 5 5 0 3 -2 5 -5 5 -3 0 -5 -2 -5
-5z"/>
</g>
</svg>
